<?xml version="1.0" encoding="UTF-8"?><svg id="Layer_2" xmlns="http://www.w3.org/2000/svg" viewBox="0 0 18.409 35.005"><g id="Layer_1-2"><path d="M13.807,0c.936,0,1.878,.051,2.812,.093,.609,.025,1.218,.112,1.79,.174l-.043,5.636h-.448c-.619,0-1.237-.008-1.856-.008-.464,0-.928,.004-1.392,.02-1.493,.05-2.592,.61-2.669,2.476-.048,1.344-.082,4.31-.084,4.467,.078,0,1.554,.005,3.039,.005,.743,0,1.469-.001,1.975-.005h1.207c-.303,2.165-.58,4.243-.882,6.333h-5.338l-.121,15.814H5.242l.121-15.839H0l.048-6.296H5.435l.004-.473c.01-1.269-.005-2.538,.041-3.807,.018-.796,.062-1.617,.205-2.414,.363-1.929,1.259-3.546,2.873-4.703C9.972,.466,11.58,.043,13.285,.006c.174-.004,.348-.006,.522-.006Z" fill="#fff"/></g></svg>