<?xml version="1.0" encoding="UTF-8"?><svg id="Layer_2" xmlns="http://www.w3.org/2000/svg" viewBox="0 0 30.992 30.978"><g id="Layer_1-2"><g><path d="M23.817,5.388c.008,0,.015,0,.023,0,1.02,0,1.847,.834,1.84,1.866-.008,1.02-.848,1.854-1.88,1.854-1.033-.012-1.847-.846-1.84-1.866,.008-1.025,.835-1.854,1.858-1.854Z" fill="#fff"/><path d="M30.802,7.776c.23,2.439,.379,13.96-.338,16.66-.96,3.533-3.265,5.624-6.841,6.196-1.336,.215-4.944,.345-8.547,.345-3.688,0-7.372-.136-8.609-.457-3.514-.908-5.612-3.198-6.169-6.756C-.119,21.152-.163,9.008,.591,6.371,1.575,2.937,3.867,.921,7.343,.349c1.575-.258,4.655-.349,7.764-.349,2.892,0,5.81,.079,7.566,.175,2.127,.112,4.075,.796,5.656,2.314,1.507,1.443,2.277,3.247,2.473,5.288Zm-2.98,15.478c.444-2.725,.445-12.666,.191-15.217-.278-2.725-1.944-4.517-4.64-4.94-1.335-.203-4.549-.292-7.747-.292-3.085,0-6.155,.084-7.507,.23-2.702,.311-4.519,1.978-4.95,4.666-.445,2.849-.439,13.5-.107,15.64,.344,2.227,1.601,3.758,3.824,4.38,1.202,.337,4.803,.458,8.333,.458,3.25,0,6.441-.103,7.641-.234,2.727-.299,4.531-1.978,4.963-4.691" fill="#fff"/><path d="M15.562,7.553c4.38,0,7.911,3.558,7.877,7.951-.033,4.379-3.619,7.938-8.011,7.938s-7.911-3.558-7.877-7.95c.033-4.392,3.619-7.95,8.011-7.938Zm-.116,13.077c2.816,0,5.135-2.268,5.181-5.089,.047-2.849-2.213-5.163-5.049-5.188-.015,0-.031,0-.046,0-2.816,0-5.135,2.268-5.181,5.089-.046,2.837,2.213,5.163,5.049,5.188,.015,0,.031,0,.046,0" fill="#fff"/></g></g></svg>