<?xml version="1.0" encoding="utf-8"?>
<!-- Generator: Adobe Illustrator 27.0.1, SVG Export Plug-In . SVG Version: 6.00 Build 0)  -->
<svg version="1.1" id="Layer_2_00000005268771494372270690000013898869407107025550_"
	 xmlns="http://www.w3.org/2000/svg" xmlns:xlink="http://www.w3.org/1999/xlink" x="0px" y="0px" viewBox="0 0 102 92"
	 style="enable-background:new 0 0 102 92;" xml:space="preserve">
<style type="text/css">
	.st0{fill:#FFFFFF;}
	.st1{fill:#ED196D;}
</style>
<g id="Layer_1-2">
	<g>
		<g>
			<path class="st0" d="M52,79.9l-0.6-0.4c0.6-1.4,0.6-1.6-1-2.6l-4.1-2.5c-1.7-1.1-3.2-1.2-4,0.1c-0.5,0.9-0.5,1.9-0.3,3.2
				c0.3,0.2,0.6,0.4,1.1,0.7l4.7,2.9c1.6,1,1.8,0.9,2.8-0.3l0.6,0.4L48.3,86l-0.8-0.5c0.7-1.5,0.7-1.8-0.9-2.7l-4.2-2.6
				c-1.9-1.2-3.2-1.2-4,0.1c-0.5,0.9-0.4,2.1-0.3,3.2l5.8,3.6c1.6,1,1.8,0.9,2.8-0.3l0.6,0.4l-2.9,4.7l-0.6-0.4
				c0.7-1.5,0.7-1.8-0.9-2.7l-5-3.1c-1.6-1-1.8-0.9-2.7,0.1l-0.6-0.4c0.5-1.1,0.9-2.4,1-3.7c0.6,0.4,1.4,0.9,2,1.3
				c0-0.6-0.2-1.5-0.2-2.5c0-0.8,0-1.4,0.4-2.1c0.6-1,2-1.5,3.5-1.2c-0.1-0.9-0.2-1.7-0.3-2.6c0-0.6,0.1-1.5,0.4-2.1
				c1.1-1.7,3.2-2,5.5-0.5l4.7,2.9c1.6,1,1.8,0.9,2.8-0.3l0.6,0.4L52,79.9L52,79.9L52,79.9z"/>
			<path class="st0" d="M60.4,67.1c-0.2,0.3-0.7,0.8-1.1,0.7c-0.5,0.1-0.9,0-1.4-0.1c0.1,1.2,0.3,3-0.1,3.7c-1,1.6-3.1,1.8-4.7,0.9
				c-1.3-0.8-1.7-1.8-1.4-3.4c0.3-1.6,0.8-3.7,0.7-4.5l-0.5-0.3c-1.7-1.1-3.2-0.8-3.9,0.3c-0.4,0.6-0.2,1.1,0,1.4
				c0.1,0.5,0.7,1,1.2,1.5c0.2,0.3,0.4,0.7,0.2,1.1c-0.3,0.4-1.1,0.7-1.7,0.3c-0.3-0.2-0.4-0.7-0.5-1.3c0-1-0.2-2.9,0.2-4.2
				c0.4-0.7,1-1.2,1.8-1.5c1.2-0.2,2.3-0.2,3.5,0.6l4.7,2.9c1.1,0.7,1.7,0.4,1.9,0.2c0.2-0.3,0.2-0.7,0.2-1.1l0.8,0.1L60.4,67.1
				L60.4,67.1z M53.1,64.9c0,0.6-0.2,2.1-0.1,2.7c-0.1,1.1,0.1,1.9,0.9,2.4c1.3,0.8,2.4,0.3,2.9-0.4c0.4-0.6,0.6-1.6,0.2-2.4
				C55.8,66.4,54.4,65.7,53.1,64.9z"/>
			<path class="st0" d="M60,59.1c0.1,0.9,0.5,1.3,0.8,1.5c0.5,0.3,1.2,0.2,1.8-0.8c0.5-0.9,1.1-1.7,1.5-2.4c0.9-1.4,2.5-3,5-1.4
				s3.2,5.7,1.3,8.7c-1.6,2.6-4,2.9-5.4,2c-0.5-0.3-0.9-0.7-1.1-1.4s-0.5-2.1-0.6-2.9c-0.8,0.7-1.7,0.9-2.3,0.9
				c-0.4-0.1-1-0.2-1.3-0.4c0.2-1.1-0.1-2.2-0.5-3.1L60,59.1L60,59.1z M61,58.1c-1.2,2-3.7,2.8-5.9,1.5c-2.8-1.8-2.6-4.8-1.6-6.5
				c0.4-0.7,1-1.3,2-1.7c0.6-1,1.3-2.4,1.5-3.2h0.2c0.2,0.3,0.8,1.1,0.7,1.6c-0.2,0.3-0.8,0.9-1,1.3c0.9,0,1.9,0.2,2.6,0.6
				C62.2,53.5,62.2,56.3,61,58.1L61,58.1z M64.9,59.9c-0.7,1.1-0.8,1.7-0.8,2.3c0.3,1,0.6,1.8,1.4,2.3c1.4,0.9,3.1,0.2,4.2-1.5
				c1.3-2.1,0.8-4.1-0.8-5c-0.8-0.5-1.6-0.6-2.3-0.1C65.9,58.2,65.5,58.9,64.9,59.9L64.9,59.9z M54,53.8c-0.6,1-0.2,2.4,1.8,3.7
				c1.9,1.2,3.8,1.2,4.6-0.1c0.6-1,0.2-2.4-1.8-3.7C56.6,52.6,54.8,52.5,54,53.8z"/>
			<path class="st0" d="M72.7,47.4c-0.2,0.3-0.7,0.8-1.1,0.7c-0.5,0.1-0.9,0-1.4-0.1c0.1,1.2,0.3,3-0.1,3.7c-1,1.6-3.1,1.8-4.7,0.9
				c-1.3-0.8-1.7-1.8-1.4-3.4s0.8-3.7,0.7-4.5l-0.5-0.3c-1.7-1.1-3.2-0.8-3.9,0.3c-0.4,0.6-0.2,1.1,0,1.4c0.1,0.5,0.7,1,1.2,1.5
				c0.2,0.3,0.4,0.7,0.2,1.1c-0.3,0.4-1.1,0.7-1.7,0.3c-0.3-0.2-0.4-0.7-0.5-1.3c0-1-0.2-2.9,0.2-4.2c0.4-0.7,1-1.2,1.8-1.5
				c1.2-0.2,2.3-0.2,3.5,0.6l4.7,2.9c1.1,0.7,1.7,0.4,1.9,0.2c0.2-0.3,0.2-0.7,0.2-1.1l0.8,0.1L72.7,47.4L72.7,47.4z M65.5,45
				c0,0.6-0.2,2.1-0.1,2.7c-0.1,1.1,0.1,1.9,0.9,2.4c1.3,0.8,2.4,0.3,2.9-0.4c0.4-0.6,0.6-1.6,0.2-2.4C68.1,46.7,66.8,45.8,65.5,45z
				"/>
			<path class="st0" d="M76.2,34c0.8,0.9,1.9,2.2,2.5,2.9l-4.6,7.4l-0.4-0.1c-1.9-3.9-3.9-7.7-5.9-11.3c-0.1,0.1-1.3,2.1-1.3,2.1
				c-1,1.6-0.8,2,0.7,4.2l-0.5,0.5c-0.8-0.9-2.1-2.1-3-2.9l0.3-0.4c0.4,0.1,0.7-0.1,1.3-1l3.3-5.3l0.4,0.1c1.9,3.6,4,7.6,5.9,11.3
				l1.5-2.4c1.1-1.7,0.9-2.4-0.6-4.7L76.2,34L76.2,34z"/>
			<path class="st0" d="M80,34.9l-0.6-0.4c0.7-1.5,0.7-1.8-0.9-2.7l-5-3.1c-1.1-0.7-2-0.6-2.8,0.3l-0.6-0.4c0.6-1.2,0.9-2.4,1-3.7
				c1.1,0.7,2,1.3,3.1,1.9l5.3,3.3c1.7,1.1,1.8,0.9,2.9-0.4l0.6,0.4L80,34.9L80,34.9z M67.9,24.4c-0.4,0.6-1.3,0.8-2,0.4
				c-0.8-0.5-1.1-1.4-0.7-2s1.3-0.8,2.1-0.3C68,22.8,68.3,23.8,67.9,24.4z"/>
			<path class="st0" d="M87.7,22.6l-0.6-0.4c0.6-1.4,0.6-1.6-1.1-2.7L81.9,17c-1.7-1.1-3.2-1.2-4.1,0.2c-0.5,0.9-0.4,2.1-0.3,3.2
				l5.6,3.5c1.7,1.1,1.8,0.9,2.8-0.3l0.6,0.4l-3,4.8l-0.4-0.2c0.7-1.5,0.7-1.8-0.9-2.7l-5-3.1c-1.6-1-1.8-0.9-2.7,0.1l-0.6-0.4
				c0.6-1.2,0.9-2.4,1-3.7c0.6,0.4,1.4,0.9,1.9,1.2c0-0.6-0.2-1.5-0.1-2.2c-0.1-0.9-0.1-1.6,0.4-2.3c1.1-1.7,3.2-2,5.5-0.5l4.7,2.9
				c1.7,1.1,1.8,0.9,2.8-0.3l0.6,0.4C90.7,18,87.7,22.6,87.7,22.6z"/>
			<path class="st0" d="M94.3,7.6c1,2.6,0.5,4.5,0,5.2c-1.7,2.7-5.2,2.7-7.8,1.1c-1.7-1.1-2.8-2.5-3.3-4.1c-0.5-1.7-0.4-3.2,0.3-4.3
				c1.2-2,4-2.3,5.9-1.1c0.5,0.3,0.7,0.6,0.5,0.9c-0.1,0.5-1.7,3.5-3.2,6.1c3.3,2,5.6,1.1,6.6-0.5c0.5-0.9,0.6-2,0.3-3.3L94.3,7.6
				L94.3,7.6z M84,6.3c-0.6,1-0.1,2.7,1.6,4.1C86.4,9.1,87.1,8,88,6.6c0.3-0.4,0.2-0.7-0.1-0.9C86.3,5,84.7,5.2,84,6.3L84,6.3z"/>
		</g>
		<path class="st1" d="M100.3,3.5c-1.1-0.1-1.9-0.8-1.9-1.8s0.7-1.8,1.7-1.7c1.1,0.1,1.9,0.8,1.9,1.8C102.1,2.8,101.2,3.4,100.3,3.5
			z"/>
		<g>
			<path class="st0" d="M30.7,69.9c13.4-21.2,28-44.1,41.8-65.5l-0.5-1.2H17.9C12.8,3.2,11.3,3,9.3,0H7.5C7.1,5.5,5.8,17,5,23.4h2.4
				c1.4-3.7,2.8-6.7,4.3-9.3c3.1-5.4,5.1-7.1,15-7.1h27.4C36.5,34.6,18.2,63,0,90.7L0.8,92h15.8L30.7,69.9z"/>
			<path class="st0" d="M89.9,69.7c-2.3,5.4-5.4,10.4-8.3,13.2c-2.1,2.1-8.8,3.4-16.6,4.2l-3.1,4.8h25.7c1.4-6.5,3.5-17,4.5-21.7
				L89.9,69.7L89.9,69.7z"/>
		</g>
	</g>
</g>
</svg>
