<?xml version="1.0" encoding="UTF-8"?><svg id="Layer_2" xmlns="http://www.w3.org/2000/svg" viewBox="0 0 102 92"><g id="Layer_1-2"><g><g><path d="M52.005,79.869l-.598-.398c.598-1.392,.598-1.591-.996-2.585l-4.085-2.486c-1.694-1.094-3.188-1.193-3.986,.099-.498,.895-.498,1.889-.299,3.182,.299,.199,.598,.398,1.096,.696l4.683,2.884c1.594,.994,1.793,.895,2.79-.298l.598,.398-2.89,4.673-.797-.497c.697-1.491,.697-1.79-.897-2.685l-4.185-2.585c-1.893-1.193-3.188-1.193-3.986,.099-.498,.895-.399,2.088-.299,3.182l5.779,3.58c1.594,.994,1.793,.895,2.79-.298l.598,.398-2.89,4.673-.598-.398c.697-1.491,.697-1.79-.897-2.685l-4.982-3.082c-1.594-.994-1.793-.895-2.69,.099l-.598-.398c.498-1.094,.897-2.386,.996-3.679,.598,.398,1.395,.895,1.993,1.293,0-.597-.199-1.491-.199-2.486,0-.795,0-1.392,.399-2.088,.598-.994,1.993-1.491,3.487-1.193-.1-.895-.199-1.69-.299-2.585,0-.597,.1-1.491,.399-2.088,1.096-1.69,3.188-1.989,5.48-.497l4.683,2.884c1.594,.994,1.793,.895,2.79-.298l.598,.398-2.989,4.773h0Z" fill="#fff"/><path d="M60.374,67.142c-.199,.298-.697,.795-1.096,.696-.498,.099-.897,0-1.395-.099,.1,1.193,.299,2.983-.1,3.679-.996,1.591-3.089,1.79-4.683,.895-1.295-.795-1.694-1.79-1.395-3.381,.299-1.591,.797-3.679,.697-4.474l-.498-.298c-1.694-1.094-3.188-.795-3.886,.298-.399,.597-.199,1.094,0,1.392,.1,.497,.697,.994,1.196,1.491,.199,.298,.399,.696,.199,1.094-.299,.398-1.096,.696-1.694,.298-.299-.199-.399-.696-.498-1.293,0-.994-.199-2.884,.199-4.176,.399-.696,.996-1.193,1.793-1.491,1.196-.199,2.292-.199,3.487,.597l4.683,2.884c1.096,.696,1.694,.398,1.893,.199,.199-.298,.199-.696,.199-1.094l.797,.099,.1,2.685Zm-7.274-2.287c0,.597-.199,2.088-.1,2.685-.1,1.094,.1,1.889,.897,2.386,1.295,.795,2.391,.298,2.89-.398,.399-.597,.598-1.591,.199-2.386-1.196-.696-2.591-1.491-3.886-2.287Z" fill="#fff"/><path d="M59.976,59.088c.1,.895,.498,1.293,.797,1.491,.498,.298,1.196,.199,1.793-.795,.498-.895,1.096-1.69,1.495-2.386,.897-1.392,2.491-2.983,4.982-1.392s3.188,5.668,1.295,8.651c-1.594,2.585-3.986,2.884-5.381,1.989-.498-.298-.897-.696-1.096-1.392s-.498-2.088-.598-2.884c-.797,.696-1.694,.895-2.292,.895-.399-.099-.996-.199-1.295-.398,.199-1.094-.1-2.188-.498-3.082l.797-.696Zm.996-.994c-1.196,1.989-3.687,2.784-5.879,1.491-2.79-1.79-2.591-4.773-1.594-6.463,.399-.696,.996-1.293,1.993-1.69,.598-.994,1.295-2.386,1.495-3.182h.199c.199,.298,.797,1.094,.697,1.591-.199,.298-.797,.895-.996,1.293,.897,0,1.893,.199,2.591,.597,2.69,1.79,2.69,4.574,1.495,6.364Zm3.886,1.79c-.697,1.094-.797,1.69-.797,2.287,.299,.994,.598,1.79,1.395,2.287,1.395,.895,3.089,.199,4.185-1.491,1.295-2.088,.797-4.077-.797-4.972-.797-.497-1.594-.597-2.292-.099-.698,.298-1.096,.994-1.694,1.989Zm-10.861-6.065c-.598,.994-.199,2.386,1.793,3.679,1.893,1.193,3.786,1.193,4.583-.099,.598-.994,.199-2.386-1.793-3.679-1.993-1.094-3.786-1.193-4.583,.099Z" fill="#fff"/><path d="M72.73,47.355c-.199,.298-.697,.795-1.096,.696-.498,.099-.897,0-1.395-.099,.1,1.193,.299,2.983-.1,3.679-.996,1.591-3.089,1.79-4.683,.895-1.295-.795-1.694-1.79-1.395-3.381,.299-1.591,.797-3.679,.697-4.474l-.498-.298c-1.694-1.094-3.188-.795-3.886,.298-.399,.597-.199,1.094,0,1.392,.1,.497,.697,.994,1.196,1.491,.199,.298,.399,.696,.199,1.094-.299,.398-1.096,.696-1.694,.298-.299-.199-.399-.696-.498-1.293,0-.994-.199-2.884,.199-4.176,.399-.696,.996-1.193,1.793-1.491,1.196-.199,2.292-.199,3.487,.597l4.683,2.884c1.096,.696,1.694,.398,1.893,.199,.199-.298,.199-.696,.199-1.094l.797,.099,.1,2.685Zm-7.274-2.386c0,.597-.199,2.088-.1,2.685-.1,1.094,.1,1.889,.897,2.386,1.295,.795,2.391,.298,2.89-.398,.399-.597,.598-1.591,.199-2.386-1.196-.597-2.591-1.491-3.886-2.287Z" fill="#fff"/><path d="M76.217,34.031c.797,.895,1.893,2.188,2.491,2.884l-4.583,7.358-.399-.099c-1.893-3.878-3.886-7.656-5.879-11.335-.1,.099-1.295,2.088-1.295,2.088-.996,1.591-.797,1.989,.697,4.176l-.498,.497c-.797-.895-2.092-2.088-2.989-2.884l.299-.398c.399,.099,.697-.099,1.295-.994l3.288-5.27,.399,.099c1.893,3.58,3.986,7.557,5.879,11.335l1.495-2.386c1.096-1.69,.897-2.386-.598-4.673l.399-.398Z" fill="#fff"/><path d="M80.003,34.926l-.598-.398c.697-1.491,.697-1.79-.897-2.685l-4.982-3.082q-1.594-.994-2.79,.298l-.598-.398c.598-1.193,.897-2.386,.996-3.679,1.096,.696,1.993,1.293,3.089,1.889l5.281,3.281c1.694,1.094,1.793,.895,2.89-.398l.598,.398-2.989,4.773Zm-12.056-10.54c-.399,.597-1.295,.795-1.993,.398-.797-.497-1.096-1.392-.697-1.989s1.295-.795,2.092-.298c.697,.298,.996,1.293,.598,1.889Z" fill="#fff"/><path d="M87.676,22.596l-.598-.398c.598-1.392,.598-1.591-1.096-2.685l-4.085-2.486c-1.694-1.094-3.188-1.193-4.085,.199-.498,.895-.399,2.088-.299,3.182l5.58,3.48c1.694,1.094,1.793,.895,2.79-.298l.598,.398-2.989,4.773-.399-.199c.697-1.491,.697-1.79-.897-2.685l-4.982-3.082c-1.594-.994-1.793-.895-2.69,.099l-.598-.398c.598-1.193,.897-2.386,.996-3.679,.598,.398,1.395,.895,1.893,1.193,0-.597-.199-1.491-.1-2.188-.1-.895-.1-1.591,.399-2.287,1.096-1.69,3.188-1.989,5.48-.497l4.683,2.884c1.694,1.094,1.793,.895,2.79-.298l.598,.398-2.989,4.574Z" fill="#fff"/><path d="M94.252,7.582c.996,2.585,.498,4.474,0,5.17-1.694,2.685-5.181,2.685-7.772,1.094-1.694-1.094-2.79-2.486-3.288-4.077-.498-1.69-.399-3.182,.299-4.276,1.196-1.989,3.986-2.287,5.879-1.094,.498,.298,.697,.597,.498,.895-.1,.497-1.694,3.48-3.188,6.065,3.288,1.989,5.58,1.094,6.576-.497,.498-.895,.598-1.989,.299-3.281h.697Zm-10.263-1.293c-.598,.994-.1,2.685,1.594,4.077,.797-1.293,1.495-2.386,2.391-3.778,.299-.398,.199-.696-.1-.895-1.594-.696-3.188-.497-3.886,.597Z" fill="#fff"/></g><path d="M100.291,3.504c-1.101-.1-1.902-.799-1.902-1.798s.701-1.798,1.702-1.698c1.101,.1,1.902,.799,1.902,1.798,.1,.999-.801,1.598-1.702,1.698Z" fill="#ed196d"/><g><path d="M30.728,69.926C44.14,48.751,58.753,25.778,72.566,4.403l-.5-1.199H17.916C12.812,3.205,11.31,3.005,9.308,.008h-1.802c-.4,5.494-1.702,16.98-2.502,23.372h2.402c1.401-3.696,2.803-6.692,4.304-9.289,3.103-5.394,5.105-7.092,15.014-7.092h27.425C36.533,34.568,18.217,63.034,0,90.702l.801,1.298h15.814l14.113-22.074Z" fill="#fff"/><path d="M89.881,69.726c-2.302,5.394-5.405,10.388-8.308,13.184-2.102,2.098-8.808,3.396-16.615,4.195l-3.103,4.794h25.723c1.401-6.492,3.503-16.98,4.504-21.674l-2.202-.499Z" fill="#fff"/></g></g></g></svg>