<?xml version="1.0" encoding="UTF-8"?><svg id="Layer_2" xmlns="http://www.w3.org/2000/svg" viewBox="0 0 32.503 26.34"><g id="Layer_1-2"><path d="M32.503,3.151c-.239,.361-.478,.697-.754,1.02-.703,.871-1.518,1.642-2.431,2.302l-.113,.211c.03,.983-.015,1.966-.147,2.949-.265,2.065-.864,4.044-1.75,5.922-.935,1.941-2.131,3.695-3.636,5.238-2.558,2.625-5.619,4.317-9.184,5.101-1.221,.261-2.454,.398-3.711,.435-.201,.006-.401,.009-.599,.009-3.603,0-6.942-.96-10.017-2.87l-.161-.1c.527,.057,1.048,.085,1.563,.085,1.758,0,3.45-.329,5.1-.993,1.136-.473,2.185-1.07,3.174-1.854-3.446-.112-5.591-2.6-6.148-4.616,.413,.081,.825,.12,1.235,.12,.539,0,1.076-.067,1.614-.194l.1-.05c-1.876-.435-3.311-1.431-4.294-3.048-.664-1.07-.966-2.252-.956-3.533,.942,.498,1.91,.771,2.955,.796-1.398-1.008-2.334-2.339-2.707-4.031-.373-1.692-.112-3.297,.758-4.815,3.563,4.243,8.099,6.569,13.658,6.955-.035-.274-.071-.498-.106-.734-.175-1.568,.16-3.023,1.016-4.342,1.07-1.667,2.584-2.7,4.527-3.011,.413-.069,.817-.103,1.21-.103,1.74,0,3.279,.668,4.599,1.957,.083,.074,.152,.114,.244,.114,.031,0,.066-.005,.104-.014,1.371-.286,2.668-.784,3.881-1.481l.087-.05c-.485,1.543-1.452,2.737-2.827,3.621,1.295-.137,2.517-.485,3.715-.995Z" fill="#fff"/></g></svg>